<?xml version="1.0" encoding="utf-8"?>
<!-- Generator: Adobe Illustrator 22.1.0, SVG Export Plug-In . SVG Version: 6.00 Build 0)  -->
<svg version="1.1" id="Layer_1" xmlns="http://www.w3.org/2000/svg" xmlns:xlink="http://www.w3.org/1999/xlink" x="0px" y="0px"
	 viewBox="0 0 438.7 141.2" style="enable-background:new 0 0 438.7 141.2;" xml:space="preserve">
<style type="text/css">
	.st0{fill:none;}
</style>
<g>
	<g>
		<path d="M424.9,17v7.9c-5.8-4.6-13.1-7.4-21.1-7.4c-18.7,0-33.9,15.2-33.9,33.9s15.2,33.9,33.9,33.9c8.1,0,15.5-2.8,21.3-7.6
			c1.2,4.4,5,7.7,9.8,8.1h3.8V16.9L424.9,17z M403.8,71.6c-11.1,0-20.1-9-20.1-20.1s9-20.1,20.1-20.1s20.1,9,20.1,20.1
			S414.9,71.6,403.8,71.6z"/>
		<path d="M95.1,50.5c-1.3-17.5-16-31.4-33.8-31.4c-17.9,0-32.5,13.9-33.8,31.4v0.1v35.3h13.7V53c0-11.1,9-20.1,20.1-20.1
			s20.1,9,20.1,20.1v23.1c0.6,5.3,4.9,9.4,10.2,9.8h3.5v-35V50.5z"/>
		<path d="M329,50.5c-1.3-17.5-16-31.4-33.8-31.4c-17.9,0-32.5,13.9-33.8,31.4v0.1v35.3h13.7V53c0-11.1,9-20.1,20.1-20.1
			s20.1,9,20.1,20.1v22.9c0.5,5.3,4.9,9.6,10.2,9.9h3.5V50.7L329,50.5L329,50.5z"/>
		<path d="M3.5,27v48.4C3.8,81,8.2,85.5,13.7,85.8h3.6V26.9L3.5,27L3.5,27z"/>
		<path d="M108.3,93.3c-2,4.4-3,9.1-3,14c0,18.7,15.2,33.9,33.9,33.9s33.9-15.2,33.9-33.9c0-11-5.3-20.8-13.5-27
			c8.1-6.2,13.4-16,13.4-27c0-11.3-5.6-21.3-14.1-27.5c-2.9-2-5.9-3.4-5.9-3.4c-4.2-1.9-8.9-3-13.9-3c-18.7,0-33.9,15.2-33.9,33.9
			c0,18.4,14.7,33.4,32.9,33.9c0,0,0.5,0,1,0c11.1,0.3,20.1,9,20.1,20.1s-9,20.1-20.1,20.1s-20.1-9-20.1-20.1c0-1.9,0.3-3.8,0.8-5.6
			L108.3,93.3z M139.1,73.4c-11.1,0-20.1-9-20.1-20.1s9-20.1,20.1-20.1s20.1,9,20.1,20.1S150.2,73.4,139.1,73.4z"/>
		<ellipse cx="10.8" cy="10.9" rx="10.8" ry="10.8"/>
		<path d="M227.8,70.1c-3,1.9-6.5,2.9-10.2,3c-9.4,0.2-17.5-6.3-19.8-15H249h1.4c0.8-5.1,0.6-10.4-0.9-15.6
			c-4.4-13.6-17.2-23.4-32.2-23.4c-0.2,0-0.4,0-0.6,0c-18.7,0.3-33.6,15.8-33.3,34.5c0.3,18.5,15.5,33.3,33.9,33.3
			c0.2,0,0.4,0,0.6,0c4.5-0.1,8.8-1,12.7-2.7c2.9-1.4,5.6-3.1,8-5.1c0.3-0.2,0.6-0.5,0.9-0.7L227.8,70.1z M202.7,39.1
			c3.7-3.9,8.7-6,14.1-6.1c8-0.1,15,4.5,18.4,11.3h-36.1C200.1,42.4,201.3,40.6,202.7,39.1z"/>
		<g>
			<ellipse cx="162.3" cy="10.8" rx="10.8" ry="10.8"/>
		</g>
		<path d="M366.3,19.1h-14v-0.3V0.1h-13v75.3c0,5.6,4.3,8.7,9.9,10.7h3.1v-53h14V19.1z"/>
	</g>
</g>
<g>
	<rect x="183.7" y="101.6" class="st0" width="101" height="34"/>
	<path d="M198,127.1c-2.3,0-4.3-0.5-6.2-1.5s-3.3-2.4-4.4-4.2s-1.6-3.9-1.6-6.3c0-2.3,0.5-4.4,1.5-6.2s2.4-3.3,4.3-4.4
		c1.9-1.1,4.1-1.6,6.5-1.6c1.2,0,2.4,0.2,3.6,0.5s2.3,0.8,3.3,1.3l-0.4,1.7c-2.3-1.2-4.5-1.8-6.8-1.8c-1.9,0-3.7,0.4-5.2,1.3
		c-1.5,0.8-2.8,2-3.6,3.6c-0.9,1.6-1.3,3.4-1.3,5.5c0,2,0.4,3.8,1.2,5.4c0.8,1.6,2,2.8,3.6,3.7s3.3,1.3,5.4,1.3
		c1.2,0,2.4-0.1,3.6-0.4c1.3-0.3,2.4-0.7,3.4-1.2l0.3,1.7c-1.1,0.6-2.3,1-3.5,1.3S199.3,127.1,198,127.1z"/>
	<path d="M211.4,103.2h2l10.2,17.6l10.2-17.6h2v23.6h-1.9v-20.3l-9.4,16.3h-1.6l-9.4-16.1v20.1h-2.1V103.2z"/>
	<path d="M249.1,127.2c-1.3,0-2.7-0.2-4-0.5c-1.3-0.4-2.4-0.8-3.3-1.4l0.3-1.8c1,0.6,2.1,1.1,3.3,1.5c1.2,0.4,2.4,0.5,3.6,0.5
		c1.9,0,3.4-0.4,4.6-1.3c1.1-0.8,1.7-2,1.7-3.4c0-0.9-0.2-1.7-0.6-2.3s-1-1.1-1.9-1.6s-2.2-1-3.8-1.5c-2.4-0.8-4.1-1.7-5.1-2.7
		s-1.5-2.3-1.5-3.9c0-1.9,0.7-3.3,2-4.4c1.3-1.1,3.1-1.7,5.4-1.7c1.1,0,2.2,0.1,3.3,0.4c1.1,0.3,2.1,0.7,3.1,1.1l-0.4,1.7
		c-2.1-1-4.1-1.5-6-1.5c-1.7,0-3.1,0.4-4,1.1s-1.5,1.8-1.5,3.2c0,0.8,0.2,1.6,0.5,2.1c0.3,0.6,0.9,1.1,1.7,1.5
		c0.8,0.4,1.9,0.9,3.3,1.4c1.9,0.6,3.4,1.3,4.5,2s1.8,1.4,2.3,2.2s0.7,1.8,0.7,2.9c0,2-0.7,3.6-2.2,4.8S251.5,127.2,249.1,127.2z"/>
</g>
</svg>
